<?xml version="1.0" standalone="no"?>
<!DOCTYPE svg PUBLIC "-//W3C//DTD SVG 20010904//EN"
 "http://www.w3.org/TR/2001/REC-SVG-20010904/DTD/svg10.dtd">
<svg version="1.0" xmlns="http://www.w3.org/2000/svg"
 width="300.000000pt" height="67.000000pt" viewBox="0 0 300.000000 67.000000"
 preserveAspectRatio="xMidYMid meet">
<metadata>
Created by potrace 1.10, written by Peter Selinger 2001-2011
</metadata>
<defs>
    <linearGradient id="grad1" x1="0%" y1="0%" x2="100%" y2="0%">
        <stop offset="0%" style="stop-color:rgb(219, 17, 125);stop-opacity:1" />
        <stop offset="40%" style="stop-color:rgb(0, 109, 177);stop-opacity:1" />
        <stop offset="100%" style="stop-color:#1ca1ba;stop-opacity:1" />
    </linearGradient>
</defs>
<g transform="translate(0.000000,67.000000) scale(0.100000,-0.100000)"
fill="url(#grad1)" stroke="none">
<path d="M183 650 c-22 -9 -43 -39 -43 -62 0 -8 16 -40 36 -71 l36 -58 34 56
c40 67 42 88 9 120 -26 27 -37 29 -72 15z m56 -44 c22 -26 -10 -63 -44 -50
-15 6 -21 45 -8 57 11 12 40 8 52 -7z"/>
<path d="M1397 584 c-26 -14 -33 -25 -21 -36 6 -7 64 24 64 34 0 15 -16 15
-43 2z"/>
<path d="M1500 577 c0 -18 36 -50 50 -45 7 2 3 14 -10 31 -23 29 -40 35 -40
14z"/>
<path d="M286 485 c4 -8 15 -15 25 -15 10 0 19 7 19 15 0 9 -9 15 -25 15 -18
0 -23 -4 -19 -15z"/>
<path d="M1330 467 c0 -38 6 -48 25 -41 8 3 10 15 6 36 -9 45 -31 48 -31 5z"/>
<path d="M390 476 c0 -8 14 -19 31 -25 40 -14 39 -14 39 3 0 8 -14 19 -31 25
-40 14 -39 14 -39 -3z"/>
<path d="M2416 471 c-3 -4 17 -50 46 -100 28 -50 49 -93 47 -94 -2 -2 -35 -27
-73 -56 l-68 -53 -34 33 c-38 37 -44 27 -14 -25 l21 -34 -23 -17 -23 -17 30 6
c28 6 33 3 48 -29 9 -19 21 -35 27 -35 13 0 13 4 -5 46 -13 32 -13 35 3 41 9
3 50 18 89 33 l73 28 51 -94 c46 -85 52 -93 70 -83 16 8 19 17 14 40 -4 18 -3
29 4 29 6 0 11 7 11 15 0 9 -7 15 -16 13 -26 -5 -40 48 -19 72 18 20 7 34 -19
24 -11 -4 -16 0 -16 12 0 11 18 29 41 44 48 29 74 63 65 85 -8 22 -43 18 -103
-9 -41 -19 -54 -22 -62 -12 -7 9 -7 16 0 23 16 16 1 37 -15 24 -9 -8 -20 -2
-41 19 -16 17 -23 30 -17 30 7 0 12 7 12 16 0 11 -6 15 -20 11 -10 -3 -24 1
-31 9 -13 16 -45 19 -53 5z m151 -158 c20 -21 24 -22 55 -9 79 32 85 29 33
-18 -43 -39 -48 -48 -39 -63 6 -11 15 -38 19 -61 4 -23 11 -44 16 -48 5 -3 9
-13 9 -22 0 -9 -14 8 -31 38 -17 30 -40 65 -51 77 l-21 22 -50 -19 c-61 -23
-70 -20 -25 8 59 37 63 54 26 125 -45 85 -45 88 -1 37 21 -25 48 -55 60 -67z"/>
<path d="M1533 440 c-7 -20 -8 -32 -1 -36 13 -8 25 5 33 39 10 38 -17 36 -32
-3z"/>
<path d="M520 427 c0 -21 51 -42 61 -25 5 8 -2 16 -23 25 -38 16 -38 16 -38 0z"/>
<path d="M793 403 c-46 -6 -44 -33 2 -33 28 0 35 4 35 20 0 11 -1 19 -2 18 -2
0 -18 -3 -35 -5z"/>
<path d="M894 398 c-9 -14 2 -21 36 -23 19 -2 30 2 30 10 0 15 -58 26 -66 13z"/>
<path d="M1030 386 c0 -15 58 -28 66 -14 10 15 -7 28 -37 28 -18 0 -29 -5 -29
-14z"/>
<path d="M648 383 c-25 -6 -22 -25 7 -46 28 -20 53 -14 34 9 -8 10 -8 14 0 14
6 0 11 7 11 15 0 15 -17 17 -52 8z"/>
<path d="M1160 365 c0 -8 6 -15 13 -15 6 0 22 -3 35 -6 16 -5 22 -2 22 9 0 8
-10 17 -22 21 -36 9 -48 7 -48 -9z"/>
<path d="M1368 364 c-7 -6 24 -64 34 -64 16 0 18 21 2 45 -16 25 -26 30 -36
19z"/>
<path d="M1441 349 c-18 -7 -21 -13 -13 -21 13 -13 75 9 66 23 -7 11 -22 11
-53 -2z"/>
<path d="M1290 337 c0 -9 13 -16 35 -19 28 -3 35 -1 33 11 -4 21 -68 28 -68 8z"/>
<path d="M550 311 c-13 -24 -13 -51 -1 -51 12 0 41 57 33 64 -10 11 -21 6 -32
-13z"/>
<path d="M697 263 c-2 -5 -7 -20 -11 -35 -5 -21 -3 -28 8 -28 15 0 26 21 26
51 0 19 -15 26 -23 12z"/>
<path d="M1454 258 c-7 -11 29 -48 47 -48 17 0 8 25 -16 43 -17 12 -26 14 -31
5z"/>
<path d="M566 201 c-7 -11 11 -26 42 -35 32 -10 29 18 -3 32 -31 14 -32 14
-39 3z"/>
<path d="M1566 192 c-12 -11 -5 -22 23 -36 27 -14 41 -12 41 5 0 10 -57 38
-64 31z"/>
<path d="M1685 129 c-9 -13 -6 -15 33 -24 25 -5 32 -3 32 8 0 8 -10 17 -22 21
-31 8 -36 8 -43 -5z"/>
<path d="M2238 96 c-16 -5 -28 -16 -28 -24 0 -10 7 -12 28 -7 33 8 43 17 34
31 -5 7 -16 7 -34 0z"/>
<path d="M1810 85 c0 -8 9 -15 19 -15 11 0 26 -3 35 -6 10 -4 16 -1 16 9 0 8
-7 18 -16 21 -28 11 -54 6 -54 -9z"/>
<path d="M1945 69 c-9 -13 -7 -15 33 -22 38 -8 47 17 10 27 -31 8 -36 8 -43
-5z"/>
<path d="M2080 55 c0 -10 11 -15 35 -15 24 0 35 5 35 15 0 10 -11 15 -35 15
-24 0 -35 -5 -35 -15z"/>
</g>
</svg>
